{"asset": {"version": "2.0", "generator": "FluxCore3D"}, "scene": 0, "scenes": [{"nodes": [0]}], "nodes": [{"mesh": 0}], "meshes": [{"primitives": [{"attributes": {"POSITION": 0}, "indices": 1, "material": 0}]}], "materials": [{"pbrMetallicRoughness": {"baseColorFactor": [1.0, 0.5490196078431373, 0.0, 1.0], "metallicFactor": 0.1, "roughnessFactor": 0.7}, "alphaMode": "OPAQUE", "doubleSided": false}], "accessors": [{"bufferView": 0, "byteOffset": 0, "componentType": 5126, "count": 16128, "type": "VEC3", "min": [24.04762077331543, 49.64765930175781, 6.329329490661621], "max": [125.55269622802734, 99.15262603759766, 7.2706990242004395]}, {"bufferView": 1, "byteOffset": 0, "componentType": 5125, "count": 96756, "type": "SCALAR"}], "bufferViews": [{"buffer": 0, "byteOffset": 0, "byteLength": 193536, "target": 34962}, {"buffer": 0, "byteOffset": 193536, "byteLength": 387024, "target": 34963}], "buffers": [{"byteLength": 580560, "uri": "data:application/octet-stream;base64,"}]}