{"asset": {"version": "2.0", "generator": "FluxCore3D"}, "scene": 0, "scenes": [{"nodes": [0]}], "nodes": [{"mesh": 0}], "meshes": [{"primitives": [{"attributes": {"POSITION": 0}, "indices": 1, "material": 0}]}], "materials": [{"pbrMetallicRoughness": {"baseColorFactor": [1.0, 0.5490196078431373, 0.0, 1.0], "metallicFactor": 0.1, "roughnessFactor": 0.7}}], "accessors": [{"bufferView": 0, "byteOffset": 0, "componentType": 5126, "count": 13334, "type": "VEC3", "min": [23.399999618530273, 48.599998474121094, 6.300000190734863], "max": [125.0999984741211, 99.0, 8.100000381469727]}, {"bufferView": 1, "byteOffset": 0, "componentType": 5125, "count": 79992, "type": "SCALAR"}], "bufferViews": [{"buffer": 0, "byteOffset": 0, "byteLength": 160008, "target": 34962}, {"buffer": 0, "byteOffset": 160008, "byteLength": 319968, "target": 34963}], "buffers": [{"byteLength": 479976, "uri": "data:application/octet-stream;base64,"}]}