{"asset": {"version": "2.0", "generator": "FluxCore3D"}, "scene": 0, "scenes": [{"nodes": [0]}], "nodes": [{"mesh": 0}], "meshes": [{"primitives": [{"attributes": {"POSITION": 0}, "indices": 1, "material": 0}]}], "materials": [{"pbrMetallicRoughness": {"baseColorFactor": [0.19607843137254902, 0.803921568627451, 0.19607843137254902, 1.0], "metallicFactor": 0.1, "roughnessFactor": 0.7}, "alphaMode": "OPAQUE", "doubleSided": false}], "accessors": [{"bufferView": 0, "byteOffset": 0, "componentType": 5126, "count": 1976, "type": "VEC3", "min": [63.903987884521484, 64.70396423339844, 0.7046341300010681], "max": [85.69631958007812, 84.89631652832031, 5.695377826690674]}, {"bufferView": 1, "byteOffset": 0, "componentType": 5125, "count": 11844, "type": "SCALAR"}], "bufferViews": [{"buffer": 0, "byteOffset": 0, "byteLength": 23712, "target": 34962}, {"buffer": 0, "byteOffset": 23712, "byteLength": 47376, "target": 34963}], "buffers": [{"byteLength": 71088, "uri": "data:application/octet-stream;base64,"}]}