{"asset": {"version": "2.0", "generator": "FluxCore3D"}, "scene": 0, "scenes": [{"nodes": [0]}], "nodes": [{"mesh": 0}], "meshes": [{"primitives": [{"attributes": {"POSITION": 0}, "indices": 1, "material": 0}]}], "materials": [{"pbrMetallicRoughness": {"baseColorFactor": [0.19607843137254902, 0.803921568627451, 0.19607843137254902, 1.0], "metallicFactor": 0.1, "roughnessFactor": 0.7}}], "accessors": [{"bufferView": 0, "byteOffset": 0, "componentType": 5126, "count": 1518, "type": "VEC3", "min": [63.0, 63.900001525878906, 0.8999999761581421], "max": [84.5999984741211, 83.69999694824219, 5.400000095367432]}, {"bufferView": 1, "byteOffset": 0, "componentType": 5125, "count": 9096, "type": "SCALAR"}], "bufferViews": [{"buffer": 0, "byteOffset": 0, "byteLength": 18216, "target": 34962}, {"buffer": 0, "byteOffset": 18216, "byteLength": 36384, "target": 34963}], "buffers": [{"byteLength": 54600, "uri": "data:application/octet-stream;base64,"}]}