{"asset": {"version": "2.0", "generator": "FluxCore3D"}, "scene": 0, "scenes": [{"nodes": [0]}], "nodes": [{"mesh": 0}], "meshes": [{"primitives": [{"attributes": {"POSITION": 0}, "indices": 1, "material": 0}]}], "materials": [{"pbrMetallicRoughness": {"baseColorFactor": [1.0, 0.4117647058823529, 0.7058823529411765, 1.0], "metallicFactor": 0.1, "roughnessFactor": 0.7}, "alphaMode": "OPAQUE", "doubleSided": false}], "accessors": [{"bufferView": 0, "byteOffset": 0, "componentType": 5126, "count": 1456, "type": "VEC3", "min": [64.04769897460938, 64.84769439697266, 5.529327392578125], "max": [85.55259704589844, 84.75261688232422, 6.470697402954102]}, {"bufferView": 1, "byteOffset": 0, "componentType": 5125, "count": 8724, "type": "SCALAR"}], "bufferViews": [{"buffer": 0, "byteOffset": 0, "byteLength": 17472, "target": 34962}, {"buffer": 0, "byteOffset": 17472, "byteLength": 34896, "target": 34963}], "buffers": [{"byteLength": 52368, "uri": "data:application/octet-stream;base64,"}]}