{"asset": {"version": "2.0", "generator": "FluxCore3D"}, "scene": 0, "scenes": [{"nodes": [0]}], "nodes": [{"mesh": 0}], "meshes": [{"primitives": [{"attributes": {"POSITION": 0}, "indices": 1, "material": 0}]}], "materials": [{"pbrMetallicRoughness": {"baseColorFactor": [1.0, 0.4117647058823529, 0.7058823529411765, 1.0], "metallicFactor": 0.1, "roughnessFactor": 0.7}}], "accessors": [{"bufferView": 0, "byteOffset": 0, "componentType": 5126, "count": 1150, "type": "VEC3", "min": [63.0, 63.900001525878906, 5.400000095367432], "max": [84.5999984741211, 83.69999694824219, 6.300000190734863]}, {"bufferView": 1, "byteOffset": 0, "componentType": 5125, "count": 6888, "type": "SCALAR"}], "bufferViews": [{"buffer": 0, "byteOffset": 0, "byteLength": 13800, "target": 34962}, {"buffer": 0, "byteOffset": 13800, "byteLength": 27552, "target": 34963}], "buffers": [{"byteLength": 41352, "uri": "data:application/octet-stream;base64,"}]}